<svg width="115" height="120" viewBox="0 0 115 120" fill="none" xmlns="http://www.w3.org/2000/svg">
<path d="M110.379 78.3378C110.028 79.3928 109.382 79.9641 108.437 80.2614C107.399 80.588 105.946 80.5904 104.112 80.2349C100.905 79.6132 97.0252 77.9989 93.2679 76.0935L100.416 66.6391C102.5 68.8378 104.65 70.466 106.398 71.7893C107.069 72.2978 107.681 72.7613 108.207 73.1949C109.346 74.1335 110.037 74.882 110.383 75.629C110.691 76.2939 110.789 77.1018 110.379 78.3378Z" fill="#F6F6F6" stroke="#454545" stroke-width="3" stroke-linecap="round"/>
<path d="M103.089 67.8613L103.593 71.7231L103.76 75.1651L103.593 78.775L103.341 82.3849" stroke="#454545" stroke-opacity="0.1" stroke-width="3" stroke-linecap="round"/>
<mask id="path-3-inside-1_527_959" fill="white">
<path d="M104 78.1004L103.819 73.2937L103.549 67.7033L103.189 61.9441L102.375 54.666L101.388 48.799L100.479 43.1572L99.2273 37.3645L98.0417 33.177L97.1389 30.3897L96.2361 28.052L95.1528 25.8941L93.9792 23.7362L92.5347 21.579L90.9097 19.2413L89.1944 16.9934L87.5694 14.9254L85.8542 13.0373L83.7778 11.0593L81.3403 8.99127L78.6319 7.0132L77.0069 5.93351L75.4722 5.12504L73.7569 4.22518L72.033 3.5114L70.5972 2.9664L68.9722 2.42693L67.8889 2.06728L66.8056 1.79754L65.6319 1.52781L64.3681 1.25881L61.75 0.809245L58.9514 0.449595L55.9154 0.180104L52.9931 3.35271e-05H49.7925L46.7639 0.180104L43.3333 0.449595L40.8958 0.808509L38.6389 1.34798L36.1111 1.97737L33.4028 2.87649L30.9653 3.95544L28.7083 4.94448L25.7292 6.74272L22.8713 8.64336L20.0417 10.6989L17.3333 12.9467L15.1667 14.8348L13.1467 17.1067L11.2847 19.3305L9.63502 21.8785L7.94444 24.7252L6.30344 27.9109L4.96528 31.0191L3.78225 34.3033L2.97917 36.8634L2.34157 39.4353L1.71528 42.0782L1.17361 44.9554L0.722222 47.3831L0.450683 49.9694L0.180556 53.0476L0 56.4642V61.5892L0.180556 66.541L0.722222 74.6838L1.26389 80.7978L2.07639 87.3941L3.06097 92.5764L3.97222 96.7123L5.32639 101.118L6.13889 103.636L6.17401 103.741C6.81183 105.646 7.58448 107.504 8.48611 109.3C9.5678 110.916 10.7739 112.445 12.0933 113.874L12.1875 113.976L12.8655 114.556C14.1571 115.663 15.5298 116.671 16.9722 117.572L17.7099 117.939C18.7813 118.473 19.893 118.921 21.0347 119.28L23.0208 119.73L25.1223 120C27.2197 120 29.3135 119.827 31.3824 119.482L31.5153 119.46L33.5833 118.831L35.4772 118.019L37.1042 117.479L39.2708 116.849L41.33 116.399L42.8819 116.223H44.4167L45.3194 116.313L45.9514 116.399L46.7639 116.583L48.0278 116.943L49.2917 117.302L50.8264 117.752L52 118.111L53.1736 118.471L54.2569 118.831L55.25 119.19L56.1528 119.46C56.6938 119.64 57.2468 119.781 57.8078 119.882L57.9583 119.91L58.7708 120L59.5833 120L60.3631 120L61.2986 119.91L62.2014 119.73L62.9236 119.55L64.0972 119.223L65.8125 118.651L67.6181 117.932L68.9722 117.515L70.7778 116.943L72.1319 116.673L73.9708 116.367L75.6861 116.183L77.1306 116.098H78.4847L80.1667 116.313L81.4889 116.579L82.6042 116.943L83.7778 117.302L84.7708 117.572L85.8542 117.752L87.0278 117.932L88.1111 118.022C88.772 118.083 89.4369 118.09 90.0988 118.041L90.3681 118.022L90.5207 118.011C91.3204 117.958 92.1147 117.841 92.8958 117.662L93.8889 117.302L94.7917 116.943L95.5139 116.583L96.0556 116.219C96.6565 115.683 97.215 115.102 97.7259 114.48L97.7708 114.425L98.4931 113.256L99.2273 111.987L100.028 110.019L100.66 108.041L100.931 106.962L101.201 105.883L101.743 103.456L102.375 100.072L102.829 96.771L103.819 87.2273L104 78.1004Z"/>
</mask>
<path d="M104 78.1004L103.819 73.2937L103.549 67.7033L103.189 61.9441L102.375 54.666L101.388 48.799L100.479 43.1572L99.2273 37.3645L98.0417 33.177L97.1389 30.3897L96.2361 28.052L95.1528 25.8941L93.9792 23.7362L92.5347 21.579L90.9097 19.2413L89.1944 16.9934L87.5694 14.9254L85.8542 13.0373L83.7778 11.0593L81.3403 8.99127L78.6319 7.0132L77.0069 5.93351L75.4722 5.12504L73.7569 4.22518L72.033 3.5114L70.5972 2.9664L68.9722 2.42693L67.8889 2.06728L66.8056 1.79754L65.6319 1.52781L64.3681 1.25881L61.75 0.809245L58.9514 0.449595L55.9154 0.180104L52.9931 3.35271e-05H49.7925L46.7639 0.180104L43.3333 0.449595L40.8958 0.808509L38.6389 1.34798L36.1111 1.97737L33.4028 2.87649L30.9653 3.95544L28.7083 4.94448L25.7292 6.74272L22.8713 8.64336L20.0417 10.6989L17.3333 12.9467L15.1667 14.8348L13.1467 17.1067L11.2847 19.3305L9.63502 21.8785L7.94444 24.7252L6.30344 27.9109L4.96528 31.0191L3.78225 34.3033L2.97917 36.8634L2.34157 39.4353L1.71528 42.0782L1.17361 44.9554L0.722222 47.3831L0.450683 49.9694L0.180556 53.0476L0 56.4642V61.5892L0.180556 66.541L0.722222 74.6838L1.26389 80.7978L2.07639 87.3941L3.06097 92.5764L3.97222 96.7123L5.32639 101.118L6.13889 103.636L6.17401 103.741C6.81183 105.646 7.58448 107.504 8.48611 109.3C9.5678 110.916 10.7739 112.445 12.0933 113.874L12.1875 113.976L12.8655 114.556C14.1571 115.663 15.5298 116.671 16.9722 117.572L17.7099 117.939C18.7813 118.473 19.893 118.921 21.0347 119.28L23.0208 119.73L25.1223 120C27.2197 120 29.3135 119.827 31.3824 119.482L31.5153 119.46L33.5833 118.831L35.4772 118.019L37.1042 117.479L39.2708 116.849L41.33 116.399L42.8819 116.223H44.4167L45.3194 116.313L45.9514 116.399L46.7639 116.583L48.0278 116.943L49.2917 117.302L50.8264 117.752L52 118.111L53.1736 118.471L54.2569 118.831L55.25 119.19L56.1528 119.46C56.6938 119.64 57.2468 119.781 57.8078 119.882L57.9583 119.91L58.7708 120L59.5833 120L60.3631 120L61.2986 119.91L62.2014 119.73L62.9236 119.55L64.0972 119.223L65.8125 118.651L67.6181 117.932L68.9722 117.515L70.7778 116.943L72.1319 116.673L73.9708 116.367L75.6861 116.183L77.1306 116.098H78.4847L80.1667 116.313L81.4889 116.579L82.6042 116.943L83.7778 117.302L84.7708 117.572L85.8542 117.752L87.0278 117.932L88.1111 118.022C88.772 118.083 89.4369 118.09 90.0988 118.041L90.3681 118.022L90.5207 118.011C91.3204 117.958 92.1147 117.841 92.8958 117.662L93.8889 117.302L94.7917 116.943L95.5139 116.583L96.0556 116.219C96.6565 115.683 97.215 115.102 97.7259 114.48L97.7708 114.425L98.4931 113.256L99.2273 111.987L100.028 110.019L100.66 108.041L100.931 106.962L101.201 105.883L101.743 103.456L102.375 100.072L102.829 96.771L103.819 87.2273L104 78.1004Z" fill="#F6F6F6" stroke="#F6F6F6" stroke-width="24" mask="url(#path-3-inside-1_527_959)"/>
<path d="M55.2872 79.6594C51.6116 84.4958 43.4684 81.1397 35.0733 76.9978" stroke="#454545" stroke-opacity="0.1" stroke-width="3" stroke-linecap="round"/>
<path d="M35.0003 76.7224C43.5088 80.5735 53.7615 83.819 55.8019 78.5985C57.8423 73.378 50.5468 72.5751 44.3212 66.2365" stroke="#454545" stroke-width="3" stroke-linecap="round"/>
<circle cx="61.8537" cy="47.8537" r="5.85366" fill="#333333"/>
<circle cx="80.1466" cy="47.8537" r="5.85366" fill="#333333"/>
</svg>
